/* XPM */
static char * stick_unfocused_xpm[] = {
"23 23 3 1",
" 	c None",
".	c #586E75",
"+	c #BBBBBB",
".......................",
".......................",
"..+++++++++++++++++++..",
"..+.................+..",
"..+.................+..",
"..+.................+..",
"..+...+++++++++++...+..",
"..+...+++++++++++...+..",
"..+...+.........+...+..",
"..+...+.........+...+..",
"..+...+.........+...+..",
"..+...+.........+...+..",
"..+...+.........+...+..",
"..+...+.........+...+..",
"..+...+.........+...+..",
"..+...+.........+...+..",
"..+...+++++++++++...+..",
"..+.................+..",
"..+.................+..",
"..+.................+..",
"..+++++++++++++++++++..",
".......................",
"......................."};
